<svg width="66" height="18" viewBox="0 0 66 18" fill="none" xmlns="http://www.w3.org/2000/svg">
<path d="M3.58 3.46L4.18 11.2H2.68L3.36 3.46H3.58ZM4.16 14.66L3.88 17.64H2.16L0.7 16.3L2.08 0.999999H4.88L6.22 2.46L7.46 17.64H5.74L4.28 16.3L4.16 14.66ZM4.56 16H5.8L4.6 1.3H2.36L1.02 16H2.26L2.58 12.34H4.28L4.56 16ZM15.6641 2.38V17.64H13.2441L12.3841 16.72V17.64H10.6241L9.16406 16.3V0.999999H11.7641L12.4641 1.8V0.999999H14.3041L15.6641 2.38ZM12.7641 1.3V13.02L11.6241 1.3H9.46406V16H10.7441V3.88L11.9241 16H14.0241V1.3H12.7641ZM17.6602 0.999999H19.5602L20.9002 2.46V17.64H19.1202L17.6602 16.3V0.999999ZM17.9602 16H19.2602V1.3H17.9602V16ZM27.1745 2.68L27.3545 0.999999H30.2345L31.5745 2.46V17.64H29.9545L28.9945 16.58L28.8745 17.64H27.0345L26.0745 16.6V17.64H24.3545L22.8945 16.3V0.999999H25.6145L27.1745 2.68ZM23.1945 1.3V16H24.4345L24.5145 3.82L25.7345 16H27.2545L28.5545 3.82L28.6545 16H29.9345V1.3H27.6345L26.4945 12.02L25.3545 1.3H23.1945ZM33.5781 0.999999H37.1981L38.5381 2.46V4.14H36.8181V7.7H37.1981L38.5381 9.16V10.84H36.8181V14.5H37.1981L38.5381 15.96V17.64H35.0381L33.5781 16.3V0.999999ZM33.8781 16H36.8981V14.8H35.1781V9.2H36.8981V8H35.1781V2.5H36.8981V1.3H33.8781V16ZM40.4336 0.999999H42.3736L43.7136 2.46V14.5H44.1536L45.4936 15.96V17.64H41.8936L40.4336 16.3V0.999999ZM40.7336 16H43.8536V14.8H42.0736V1.3H40.7336V16ZM46.7031 0.999999H48.6031L49.9431 2.46V17.64H48.1631L46.7031 16.3V0.999999ZM47.0031 16H48.3031V1.3H47.0031V16ZM54.8775 6.48C54.8775 6.70667 54.8908 6.92 54.9175 7.12C54.9575 7.30667 55.0242 7.50667 55.1175 7.72C55.2242 7.92 55.3575 8.14 55.5175 8.38C55.6908 8.62 55.9108 8.9 56.1775 9.22C56.4708 9.58 56.7175 9.91333 56.9175 10.22C57.1175 10.5133 57.2775 10.8067 57.3975 11.1C57.5175 11.38 57.5975 11.6667 57.6375 11.96C57.6908 12.24 57.7175 12.5533 57.7175 12.9V15.4C57.7175 15.7467 57.6575 16.06 57.5375 16.34C57.4308 16.6333 57.2708 16.88 57.0575 17.08C56.8575 17.2933 56.6175 17.46 56.3375 17.58C56.0575 17.7 55.7508 17.76 55.4175 17.76C54.7508 17.76 54.1575 17.5267 53.6375 17.06C53.3442 16.7933 53.1108 16.58 52.9375 16.42C52.7775 16.2733 52.6508 16.1533 52.5575 16.06C52.4642 15.98 52.3908 15.9067 52.3375 15.84C52.2842 15.7733 52.2175 15.6933 52.1375 15.6C51.9508 15.36 51.8175 15.14 51.7375 14.94C51.6708 14.7267 51.6375 14.4933 51.6375 14.24V10.28H53.5375L54.4775 11.34C54.4642 11.1 54.4308 10.88 54.3775 10.68C54.3242 10.4667 54.2375 10.2533 54.1175 10.04C53.9975 9.82667 53.8375 9.6 53.6375 9.36C53.4508 9.10667 53.2042 8.81333 52.8975 8.48C52.0575 7.52 51.6375 6.5 51.6375 5.42V3.44C51.6375 3.08 51.6975 2.74667 51.8175 2.44C51.9508 2.12 52.1242 1.84667 52.3375 1.62C52.5508 1.39333 52.8042 1.21333 53.0975 1.08C53.3908 0.946666 53.7108 0.879999 54.0575 0.879999C54.2708 0.879999 54.4775 0.913332 54.6775 0.979999C54.8775 1.04667 55.0908 1.16667 55.3175 1.34C55.5575 1.5 55.8108 1.71333 56.0775 1.98C56.3575 2.24667 56.6775 2.58 57.0375 2.98C57.2908 3.26 57.4642 3.54 57.5575 3.82C57.6642 4.08667 57.7175 4.40667 57.7175 4.78V7.4H55.9375L54.8775 6.34V6.48ZM56.0775 3.38C56.0775 2.74 55.8842 2.21333 55.4975 1.8C55.1242 1.38667 54.6442 1.18 54.0575 1.18C53.7642 1.18 53.4842 1.24 53.2175 1.36C52.9642 1.48 52.7442 1.64 52.5575 1.84C52.3708 2.04 52.2175 2.28 52.0975 2.56C51.9908 2.82667 51.9375 3.12 51.9375 3.44V5.42C51.9375 5.71333 51.9575 5.98667 51.9975 6.24C52.0508 6.48 52.1308 6.72 52.2375 6.96C52.3575 7.2 52.5108 7.45333 52.6975 7.72C52.8842 7.97333 53.1175 8.26 53.3975 8.58C53.6642 8.87333 53.8842 9.14 54.0575 9.38C54.2308 9.62 54.3708 9.85333 54.4775 10.08C54.5842 10.2933 54.6575 10.5133 54.6975 10.74C54.7508 10.9533 54.7775 11.1867 54.7775 11.44V13.88C54.7775 14.16 54.7108 14.3867 54.5775 14.56C54.4442 14.7333 54.2642 14.82 54.0375 14.82C53.8108 14.82 53.6175 14.7267 53.4575 14.54C53.3108 14.3533 53.2375 14.12 53.2375 13.84V10.58H51.9375V14.24C51.9375 14.7867 52.1375 15.24 52.5375 15.6C52.9375 15.9467 53.4442 16.12 54.0575 16.12C54.6575 16.12 55.1442 15.9267 55.5175 15.54C55.8908 15.14 56.0775 14.6267 56.0775 14V11.5C56.0775 11.1667 56.0508 10.86 55.9975 10.58C55.9575 10.2867 55.8775 10.0067 55.7575 9.74C55.6375 9.46 55.4775 9.17333 55.2775 8.88C55.0775 8.58667 54.8308 8.26 54.5375 7.9C54.2842 7.59333 54.0708 7.32 53.8975 7.08C53.7375 6.84 53.6042 6.61333 53.4975 6.4C53.4042 6.17333 53.3375 5.96 53.2975 5.76C53.2575 5.54667 53.2375 5.32 53.2375 5.08V3.42C53.2375 3.14 53.3108 2.91333 53.4575 2.74C53.6042 2.56667 53.7908 2.48 54.0175 2.48C54.2442 2.48 54.4242 2.56667 54.5575 2.74C54.7042 2.91333 54.7775 3.14667 54.7775 3.44V5.76H56.0775V3.38ZM58.818 0.999999H64.078L65.418 2.48V4.26H63.738V17.64H61.958L60.498 16.3V4.26H60.278L58.818 2.92V0.999999ZM59.118 2.62H60.798V16H62.098V2.62H63.778V1.3H59.118V2.62Z" fill="black"/>
</svg>
